<?xml version="1.0" encoding="iso-8859-1"?>
<!-- Uploaded to: SVG Repo, www.svgrepo.com, Generator: SVG Repo Mixer Tools -->
<svg height="800px" width="800px" version="1.1" id="Layer_1" xmlns="http://www.w3.org/2000/svg" xmlns:xlink="http://www.w3.org/1999/xlink" 
	 viewBox="0 0 496.2 496.2" xml:space="preserve">
<path style="fill:#334D5C;" d="M496.2,248.1C496.2,111.1,385.1,0,248.1,0S0,111.1,0,248.1s111.1,248.1,248.1,248.1
	S496.2,385.1,496.2,248.1z"/>
<path style="fill:#EFB533;" d="M307.7,234c32.9-32.9,32.9-86.4,0-119.3s-86.4-32.9-119.3,0s-32.9,86.4,0,119.3
	C221.4,266.9,274.8,266.9,307.7,234z"/>
<path style="fill:#E5AA17;" d="M307.7,234c32.9-32.9,32.9-86.4,0-119.3L188.5,234C221.4,266.9,274.8,266.9,307.7,234z"/>
<circle style="fill:#F4DE7F;" cx="248.1" cy="174.3" r="73.1"/>
<path style="fill:#F2D55A;" d="M299.8,226c28.6-28.6,28.6-74.8,0-103.4L196.4,226C225,254.6,271.2,254.6,299.8,226z"/>
<path style="fill:#E5AA17;" d="M276.1,149.1c0,5.4-6.1,9.2-6.4,8.7c-4.5-5.3-12.3-9.2-20.2-9.2c-8,0-12.9,3.6-12.9,9
	c0,6.2,6.6,7.9,15.8,9.9c11,2.4,25.4,6.8,25.4,22.5c0,12.1-8.4,20.4-22.3,22.6v4.7c0,5.5-2.1,8.1-6.9,8.1H248c-5,0-6.8-2.5-6.8-8.1
	v-4.4c-14.5-1.6-22.7-8.1-22.7-14.8c0-5.1,5.7-8.8,6.2-8.4c4.5,5.5,13.4,10,22.7,10c8.5,0,13.4-3.6,13.4-9c0-6.6-7.4-8.4-16.1-10.4
	c-10.5-2.3-24.4-6.4-24.4-22.2c0-11.5,8.1-19.7,21-22.1v-4.4c0-5.5,2-8.1,6.8-8.1h0.7c4.9,0,6.8,2.5,6.8,8.1v4.1
	C268.8,137,276.1,143,276.1,149.1z"/>
<g>
	<path style="fill:#F2D55A;" d="M260.7,190.6c0-6.6-7.4-8.4-16.1-10.4c-0.6-0.1-1.3-0.3-1.9-0.4L229,193.5
		c4.8,3.5,11.5,6.1,18.4,6.1C255.8,199.6,260.7,196,260.7,190.6z"/>
	<path style="fill:#F2D55A;" d="M299.8,122.6l-24.1,24.1c0.2,0.8,0.4,1.6,0.4,2.4c0,5.4-6.1,9.2-6.4,8.7c-0.8-0.9-1.6-1.7-2.5-2.5
		L254.5,168c10.6,2.5,23.3,7.3,23.3,22c0,12.1-8.4,20.4-22.3,22.6v4.7c0,5.5-2.1,8.1-6.9,8.1H248c-5,0-6.8-2.5-6.8-8.1v-4.4
		c-11-1.2-18.4-5.3-21.3-10.1l-23.4,23.4c28.6,28.6,74.8,28.6,103.4,0C328.4,197.5,328.4,151.2,299.8,122.6z"/>
</g>
<path style="fill:#EFB533;" d="M224.6,189.6c-0.5-0.5-6.2,3.2-6.2,8.4c0,1.6,0.5,3.2,1.4,4.7l9.1-9.1
	C227.2,192.3,225.8,191,224.6,189.6z"/>
<path style="fill:#E5AA17;" d="M269.7,157.8c0.4,0.5,6.4-3.3,6.4-8.7c0-0.8-0.1-1.6-0.4-2.4l-8.6,8.6
	C268.1,156.1,268.9,156.9,269.7,157.8z"/>
<g>
	<path style="fill:#E5AD88;" d="M285.1,297.1c0,0-20.3,4.6-33,4.2c-6.5-0.2-19.5,3.5-32.7,8.3c-12.7,4.7-25.5,5.7-26.8,9.8
		c-3.7,11.3,15.2,14.6,17.4,14.7c18.3,0.8,40.8-3,40.8-3l25.1,1.3L285.1,297.1z"/>
	<path style="fill:#E5AD88;" d="M237,377.5c6.6-1.8,1.1-18.7-0.7-25.2l0,0c-1.8-6.5-8-8.2-8-8.2l-41.3,2.7l-58.1-6.7
		c-5.2,0.1-11.5-0.2-12.8,6c-1.8,8.3,8.5,9.9,19.1,12.6c10.5,2.6,51.3,10,51.3,10L237,377.5z"/>
	<path style="fill:#E5AD88;" d="M490.7,196c-67,49.4-143.1,106.1-147.5,103.7c-6.3-3.4-44.2-7.3-63.2-1.8l-17.2,32.4l-17.2,8.7
		c-7,2.3-22.4,6.3-22.4,6.3l4,30.6c9.9,2.1,14.2,2.2,25.1,0.3c14.7-2.5,31.7-2.4,77.9-10.8c0,0,92.2-31.1,158.6-57.2
		c4.8-19.3,7.4-39.4,7.4-60.1C496.2,230.2,494.3,212.8,490.7,196z"/>
</g>
</svg>