<svg width="371" height="320" viewBox="0 0 371 320" fill="none" xmlns="http://www.w3.org/2000/svg">
<circle cx="174.02" cy="159.518" r="159.018" fill="#ADA7B7" stroke="#5D526D"/>
<path d="M276.309 170.811C275.105 172.314 268.338 180.051 254.126 180.051C239.914 180.051 233.146 172.314 231.943 170.811L235.102 169.234C238.26 167.656 240.215 164.426 240.215 160.895V147.073H268.112V160.895C268.112 164.426 270.067 167.656 273.226 169.234L276.309 170.811Z" fill="#E3BA86"/>
<path d="M196 204.015V217.462C196 219.115 197.354 220.467 199.008 220.467H309.169C310.823 220.467 312.177 219.115 312.177 217.462V204.015C312.177 194.926 307.063 186.662 299.018 182.531L273.15 169.309C273.15 169.309 267.511 177.422 254.126 177.422C240.741 177.422 235.102 169.309 235.102 169.309L209.234 182.531C201.113 186.587 196 194.926 196 204.015Z" fill="#D6421E"/>
<path d="M299.018 182.455L273.15 169.234C273.15 169.234 270.067 173.666 263.074 175.92L275.782 182.38C283.903 186.512 288.941 194.85 288.941 203.865V220.467H309.169C310.823 220.467 312.177 219.115 312.177 217.462V204.015C312.252 194.926 307.139 186.587 299.018 182.455Z" fill="#AD250B"/>
<path d="M254.126 73.4535C274.429 73.4535 290.896 88.4779 290.896 111.54C290.896 134.603 279.993 157.064 254.126 157.064C228.259 157.064 217.355 134.603 217.355 111.54C217.355 88.4779 233.823 73.4535 254.126 73.4535Z" fill="#F7CF9C"/>
<path d="M254.126 66.467C254.126 66.467 292.927 65.7158 294.355 102.3C294.656 109.437 292.475 120.254 292.475 120.254C292.4 122.207 290.595 123.485 288.941 122.733C285.708 121.306 281.271 118.076 280.219 110.338C278.489 98.0182 262.623 101.474 254.126 101.474C245.629 101.474 229.763 98.0182 228.033 110.338C226.98 118.001 222.469 121.306 219.31 122.733C217.656 123.485 215.851 122.132 215.776 120.254C215.776 120.254 213.671 109.437 213.896 102.3C215.325 65.7158 254.126 66.467 254.126 66.467Z" fill="#BB7B4C"/>
<path d="M242.471 67.9694C253.9 70.7489 269.842 78.787 271.045 101.474C275.632 102.375 279.392 104.704 280.144 110.338C281.196 118.001 285.708 121.306 288.866 122.733C290.521 123.485 292.325 122.132 292.4 120.254C292.4 120.254 294.506 109.437 294.28 102.3C292.927 65.7158 254.126 66.467 254.126 66.467" fill="#A46F3E"/>
<path d="M203.509 170.811C202.305 172.314 195.538 180.051 181.326 180.051C167.114 180.051 160.346 172.314 159.143 170.811L162.302 169.234C165.46 167.656 167.415 164.426 167.415 160.895V147.073H195.312V160.895C195.312 164.426 197.267 167.656 200.426 169.234L203.509 170.811Z" fill="#A26E3D"/>
<path d="M123.2 204.015V217.462C123.2 219.115 124.553 220.467 126.208 220.467H236.369C238.023 220.467 239.377 219.115 239.377 217.462V204.015C239.377 194.926 234.263 186.662 226.218 182.531L200.35 169.309C200.35 169.309 194.711 177.422 181.326 177.422C167.941 177.422 162.302 169.309 162.302 169.309L136.434 182.531C128.313 186.587 123.2 194.926 123.2 204.015Z" fill="#35E298"/>
<path d="M226.218 182.455L200.35 169.234C200.35 169.234 197.267 173.666 190.274 175.92L202.982 182.38C211.103 186.512 216.141 194.85 216.141 203.865V220.467H236.369C238.023 220.467 239.377 219.115 239.377 217.462V204.015C239.377 194.926 234.339 186.587 226.218 182.455Z" fill="#2DAD83"/>
<path d="M181.326 73.4535C201.629 73.4535 218.096 88.4779 218.096 111.54C218.096 134.603 207.193 157.064 181.326 157.064C155.459 157.064 144.48 134.603 144.48 111.54C144.48 88.4779 160.948 73.4535 181.326 73.4535Z" fill="#B67C46"/>
<path d="M181.326 66.467C181.326 66.467 220.127 65.7158 221.555 102.3C221.856 109.437 219.675 120.254 219.675 120.254C219.6 122.207 217.796 123.485 216.141 122.733C212.908 121.306 208.471 118.076 207.419 110.338C205.689 98.0182 189.823 101.474 181.326 101.474C172.829 101.474 156.963 98.0182 155.233 110.338C154.18 118.001 149.669 121.306 146.51 122.733C144.856 123.485 143.051 122.132 142.976 120.254C142.976 120.254 140.871 109.437 141.096 102.3C142.45 65.7158 181.326 66.467 181.326 66.467Z" fill="#5D526D"/>
<path d="M169.671 67.9694C181.1 70.7489 197.042 78.787 198.245 101.474C202.832 102.375 206.592 104.704 207.344 110.338C208.396 118.001 212.908 121.306 216.066 122.733C217.721 123.485 219.525 122.132 219.6 120.254C219.6 120.254 221.706 109.437 221.48 102.3C220.127 65.7158 181.326 66.467 181.326 66.467" fill="#21003C"/>
<path d="M311.309 215.611C310.106 217.114 303.338 224.851 289.126 224.851C274.914 224.851 268.147 217.114 266.943 215.611L270.102 214.034C273.26 212.456 275.215 209.226 275.215 205.695V191.873H303.112V205.695C303.112 209.226 305.067 212.456 308.226 214.034L311.309 215.611Z" fill="#A26E3D"/>
<path d="M289.126 118.253C309.429 118.253 325.897 133.278 325.897 156.34C325.897 179.403 314.993 201.864 289.126 201.864C263.259 201.864 252.28 179.403 252.28 156.34C252.28 133.278 268.748 118.253 289.126 118.253Z" fill="#B67C46"/>
<path d="M289.126 111.267C289.126 111.267 327.927 110.516 329.355 147.1C329.656 154.237 327.475 165.054 327.475 165.054C327.4 167.007 325.596 168.284 323.941 167.533C320.708 166.106 316.271 162.876 315.219 155.138C313.489 142.818 297.623 146.274 289.126 146.274C280.629 146.274 264.763 142.818 263.033 155.138C261.98 162.801 257.469 166.106 254.31 167.533C252.656 168.284 250.851 166.932 250.776 165.054C250.776 165.054 248.671 154.237 248.896 147.1C250.25 110.516 289.126 111.267 289.126 111.267Z" fill="#ADA7B7"/>
<path d="M277.471 112.769C288.9 115.549 304.842 123.587 306.045 146.274C310.632 147.175 314.392 149.504 315.144 155.138C316.196 162.801 320.708 166.106 323.866 167.533C325.521 168.284 327.325 166.932 327.4 165.054C327.4 165.054 329.506 154.237 329.28 147.1C327.927 110.516 289.126 111.267 289.126 111.267" fill="#857C93"/>
<path d="M129.233 170.811C128.03 172.314 121.263 180.051 107.051 180.051C92.8389 180.051 86.0713 172.314 84.8682 170.811L88.0264 169.234C91.1846 167.656 93.1396 164.426 93.1396 160.895V147.073H121.037V160.895C121.037 164.426 122.992 167.656 126.15 169.234L129.233 170.811Z" fill="#EAC478"/>
<path d="M49 204.015V217.462C49 219.115 50.3535 220.467 52.0078 220.467H162.169C163.823 220.467 165.177 219.115 165.177 217.462V204.015C165.177 194.926 160.063 186.662 152.018 182.531L126.15 169.309C126.15 169.309 120.511 177.422 107.126 177.422C93.7412 177.422 88.1016 169.309 88.1016 169.309L62.1592 182.455C54.0381 186.587 49 194.926 49 204.015Z" fill="#F9AF19"/>
<path d="M152.018 182.455L126.15 169.234C126.15 169.234 123.067 173.666 116.074 175.92L128.782 182.38C136.903 186.512 141.941 194.85 141.941 203.865V220.467H162.169C163.823 220.467 165.177 219.115 165.177 217.462V204.015C165.177 194.926 160.063 186.587 152.018 182.455Z" fill="#D18E06"/>
<path d="M107.051 73.4535C127.354 73.4535 143.821 88.4779 143.821 111.54C143.821 134.603 132.918 157.064 107.051 157.064C81.1836 157.064 70.2803 134.603 70.2803 111.54C70.2803 88.4779 86.7481 73.4535 107.051 73.4535Z" fill="#FFD682"/>
<path d="M107.051 66.467C107.051 66.467 145.852 65.7158 147.28 102.3C147.581 109.437 145.401 120.254 145.401 120.254C145.325 122.207 143.521 123.485 141.866 122.733C138.633 121.306 134.196 118.076 133.144 110.338C131.414 98.0182 115.548 101.474 107.051 101.474C98.5539 101.474 82.6877 98.0182 80.9582 110.338C79.9055 118.001 75.3937 121.306 72.2355 122.733C70.5812 123.485 68.7766 122.132 68.7014 120.254C68.7014 120.254 66.5959 109.437 66.8215 102.3C68.2502 65.7158 107.051 66.467 107.051 66.467Z" fill="#BB5D4C"/>
<path d="M95.4707 67.9694C106.9 70.7489 122.842 78.787 124.045 101.474C128.632 102.375 132.392 104.704 133.144 110.338C134.196 118.001 138.708 121.306 141.866 122.733C143.521 123.485 145.325 122.132 145.4 120.254C145.4 120.254 147.506 109.437 147.28 102.3C145.927 65.7158 107.051 66.467 107.051 66.467" fill="#A44F3E"/>
<path d="M80.3086 215.611C79.1054 217.114 72.3379 224.851 58.1259 224.851C43.914 224.851 37.1465 217.114 35.9433 215.611L39.1015 214.034C42.2597 212.456 44.2148 209.226 44.2148 205.695V191.873H72.1123V205.695C72.1123 209.226 74.0673 212.456 77.2256 214.034L80.3086 215.611Z" fill="#E3BA86"/>
<path d="M0 248.815V262.262C0 263.915 1.35352 265.267 3.00781 265.267H113.169C114.823 265.267 116.177 263.915 116.177 262.262V248.815C116.177 239.726 111.063 231.462 103.018 227.33L77.1504 214.109C77.1504 214.109 71.5107 222.222 58.126 222.222C44.7412 222.222 39.1016 214.109 39.1016 214.109L13.2344 227.33C5.11329 231.387 0 239.726 0 248.815Z" fill="#D6421E"/>
<path d="M103.018 227.255L77.1504 214.034C77.1504 214.034 74.0674 218.466 67.0742 220.72L79.7822 227.18C87.9033 231.312 92.9414 239.651 92.9414 248.665V265.267H113.169C114.823 265.267 116.177 263.915 116.177 262.262V248.815C116.252 239.726 111.139 231.387 103.018 227.255Z" fill="#AD250B"/>
<path d="M58.126 118.253C78.4287 118.253 94.8965 133.278 94.8965 156.34C94.8965 179.403 83.9932 201.864 58.126 201.864C32.2588 201.864 21.3555 179.403 21.3555 156.34C21.3555 133.278 37.8232 118.253 58.126 118.253Z" fill="#F7CF9C"/>
<path d="M58.1258 111.267C58.1258 111.267 96.9266 110.516 98.3553 147.1C98.6561 154.237 96.4754 165.054 96.4754 165.054C96.4002 167.008 94.5955 168.285 92.9412 167.533C89.7078 166.106 85.2713 162.876 84.2186 155.138C82.4891 142.818 66.6229 146.274 58.1258 146.274C49.6287 146.274 33.7625 142.818 32.033 155.138C30.9803 162.801 26.4686 166.106 23.3104 167.533C21.6561 168.285 19.8514 166.932 19.7762 165.054C19.7762 165.054 17.6707 154.237 17.8963 147.1C19.325 110.516 58.1258 111.267 58.1258 111.267Z" fill="#BB7B4C"/>
<path d="M46.4707 112.769C57.9004 115.549 73.8418 123.587 75.0449 146.274C79.6319 147.175 83.3916 149.504 84.1436 155.138C85.1963 162.801 89.708 166.106 92.8662 167.533C94.5205 168.285 96.3252 166.932 96.4004 165.054C96.4004 165.054 98.5059 154.237 98.2803 147.1C96.9268 110.516 58.126 111.267 58.126 111.267" fill="#A46F3E"/>
<path d="M196.433 215.611C195.23 217.114 188.463 224.851 174.251 224.851C160.039 224.851 153.271 217.114 152.068 215.611L155.226 214.034C158.385 212.456 160.34 209.226 160.34 205.695V191.873H188.237V205.695C188.237 209.226 190.192 212.456 193.35 214.034L196.433 215.611Z" fill="#EAC478"/>
<path d="M116.2 248.815V262.262C116.2 263.915 117.554 265.267 119.208 265.267H229.369C231.023 265.267 232.377 263.915 232.377 262.262V248.815C232.377 239.725 227.263 231.462 219.218 227.33L193.35 214.109C193.35 214.109 187.711 222.222 174.326 222.222C160.941 222.222 155.302 214.109 155.302 214.109L129.359 227.255C121.238 231.387 116.2 239.725 116.2 248.815Z" fill="#5A82FA"/>
<path d="M219.218 227.255L193.35 214.034C193.35 214.034 190.267 218.466 183.274 220.72L195.982 227.18C204.103 231.312 209.141 239.65 209.141 248.665V265.267H229.369C231.023 265.267 232.377 263.915 232.377 262.262V248.815C232.377 239.725 227.263 231.387 219.218 227.255Z" fill="#3A62DC"/>
<path d="M174.251 118.253C194.553 118.253 211.021 133.278 211.021 156.34C211.021 179.403 200.118 201.864 174.251 201.864C148.384 201.864 137.48 179.403 137.48 156.34C137.48 133.278 153.948 118.253 174.251 118.253Z" fill="#FFD682"/>
<path d="M174.251 111.267C174.251 111.267 213.052 110.516 214.48 147.1C214.781 154.237 212.601 165.054 212.601 165.054C212.525 167.007 210.721 168.284 209.066 167.533C205.833 166.106 201.396 162.876 200.344 155.138C198.614 142.818 182.748 146.274 174.251 146.274C165.754 146.274 149.888 142.818 148.158 155.138C147.105 162.801 142.594 166.106 139.436 167.533C137.781 168.284 135.977 166.932 135.901 165.054C135.901 165.054 133.796 154.237 134.021 147.1C135.45 110.516 174.251 111.267 174.251 111.267Z" fill="#BB5D4C"/>
<path d="M162.671 112.769C174.1 115.549 190.042 123.587 191.245 146.274C195.832 147.175 199.592 149.504 200.344 155.138C201.396 162.801 205.908 166.106 209.066 167.533C210.72 168.284 212.525 166.932 212.6 165.054C212.6 165.054 214.706 154.237 214.48 147.1C213.127 110.516 174.251 111.267 174.251 111.267" fill="#A44F3E"/>
<path d="M336.379 227.23L317.118 220.466L289.783 225.731L262.449 220.466L243.188 227.23C236.702 229.496 232.4 235.431 232.4 242.068V262.617C232.4 264.085 233.624 265.266 235.147 265.266H344.453C345.976 265.266 347.2 264.085 347.2 262.617V242.068C347.167 235.431 342.865 229.496 336.379 227.23Z" fill="#E4EAF8"/>
<path d="M336.517 225.472L326.785 221.866C314.89 227.608 306.6 239.927 306.6 254.249C306.6 258.088 307.223 261.794 308.304 265.266H344.48C345.988 265.266 347.2 264.031 347.2 262.495V240.995C347.2 234.051 342.94 227.842 336.517 225.472Z" fill="#D5DCED"/>
<path d="M341.6 284.866C357.837 284.866 371 271.39 371 254.766C371 238.142 357.837 224.666 341.6 224.666C325.363 224.666 312.2 238.142 312.2 254.766C312.2 271.39 325.363 284.866 341.6 284.866Z" fill="#30C992"/>
<path d="M356.544 276.692C340.2 276.692 326.981 263.057 326.981 246.273C326.981 237.831 330.335 230.193 335.739 224.666C322.293 227.547 312.2 239.774 312.2 254.448C312.2 271.265 325.451 284.866 341.763 284.866C349.902 284.866 357.26 281.482 362.6 276.022C360.646 276.491 358.628 276.692 356.544 276.692Z" fill="#2DAD83"/>
<path d="M235.927 231.666C233.723 234.441 232.4 237.87 232.4 241.527V262.556C232.4 264.058 233.655 265.266 235.215 265.266H252V255.241C252 251.29 250.474 247.47 247.761 244.499L235.927 231.666Z" fill="#D5DCED"/>
<path d="M293.771 233.066H285.863L284.2 265.266H295.4L293.771 233.066Z" fill="#30C992"/>
<path d="M284.2 224.666V233.057C284.2 234.614 285.452 235.866 287.008 235.866H292.592C294.148 235.866 295.4 234.614 295.4 233.057V224.666H284.2Z" fill="#2DAD83"/>
<path d="M270.065 212.487L289.657 224.738L278.258 236.128C277.069 237.32 275.087 237.154 274.096 235.797L262.334 219.275L266.331 213.282C267.157 212.057 268.809 211.693 270.065 212.487Z" fill="#D5DCED"/>
<path d="M309.216 212.487L289.624 224.738L300.989 236.128C302.179 237.32 304.161 237.154 305.152 235.797L316.914 219.275L312.917 213.282C312.124 212.057 310.472 211.693 309.216 212.487Z" fill="#D5DCED"/>
<rect x="337.4" y="247.066" width="8.4" height="25.2" rx="4.2" fill="#FFFFF2"/>
<ellipse cx="341.6" cy="241.466" rx="4.2" ry="2.8" fill="#FFFFF2"/>
</svg>
